<?xml version="1.0" encoding="utf-8"?>
<!-- Generator: Adobe Illustrator 24.2.1, SVG Export Plug-In . SVG Version: 6.00 Build 0)  -->
<svg version="1.1" id="Capa_1" xmlns="http://www.w3.org/2000/svg" xmlns:xlink="http://www.w3.org/1999/xlink" x="0px" y="0px"
	 viewBox="0 0 512 512" style="enable-background:new 0 0 512 512;" xml:space="preserve">
<style type="text/css">
	.st0{fill:#FFFFFF;}
</style>
<g>
	<path class="st0" d="M158.2,241H241v-90.5h-71.3C163.1,178.4,159.2,209,158.2,241z"/>
	<path class="st0" d="M271,241h82.8c-0.9-32-4.9-62.6-11.5-90.5H271V241z"/>
	<path class="st0" d="M383.8,241h127.8c-1.8-31.7-9.4-62.2-22.2-90.5H373C379.2,178.7,382.9,209.3,383.8,241z"/>
	<path class="st0" d="M139,150.5H22.6C9.8,178.8,2.3,209.3,0.4,241h127.8C129.1,209.3,132.8,178.7,139,150.5L139,150.5z"/>
	<path class="st0" d="M241,33c-18.6,7.3-36.8,27.9-51.3,59c-4.2,8.9-8,18.5-11.4,28.5H241V33z"/>
	<path class="st0" d="M162.5,79.2C186.5,28.1,219.7,0,256,0C187.6,0,123.3,26.6,75,75C61,88.9,48.9,104.2,38.7,120.5h108.1
		C151.3,105.8,156.5,91.9,162.5,79.2L162.5,79.2z"/>
	<path class="st0" d="M349.5,79.2c6,12.7,11.2,26.6,15.7,41.3h108.1C463.1,104.2,451,88.9,437,75C388.7,26.6,324.4,0,256,0
		C292.3,0,325.5,28.1,349.5,79.2z"/>
	<path class="st0" d="M271,33v87.5h62.7c-3.4-10.1-7.2-19.6-11.4-28.5C307.8,60.9,289.6,40.3,271,33z"/>
	<path class="st0" d="M0,271v226c0,8.3,6.7,15,15,15h482c8.3,0,15-6.7,15-15V271H0z M137.4,447.4c-5.8,1.8-11.8-0.4-15.4-5.7l-38-55
		v49.7c0,6.9-5.6,12.5-12.5,12.5c-6.9,0-12.5-5.6-12.5-12.5v-89.8c0-5.5,3.6-10.3,8.8-11.9c5.2-1.6,10.9,0.3,14,4.8l39.9,57.8
		l-0.5-50.8c-0.1-6.9,5.5-12.6,12.4-12.6h0.1c6.8,0,12.4,5.5,12.5,12.4l0.8,87v0.1C147,440.1,143.2,445.6,137.4,447.4L137.4,447.4z
		 M212.2,379c6.9,0,12.5,5.6,12.5,12.5s-5.6,12.5-12.5,12.5h-22.6v20H215c6.9,0,12.5,5.6,12.5,12.5S221.9,449,215,449H177
		c-6.9,0-12.5-5.6-12.5-12.5v-90c0-6.9,5.6-12.5,12.5-12.5H215c6.9,0,12.5,5.6,12.5,12.5S221.9,359,215,359h-25.4v20H212.2z
		 M364,349.1l-17.6,88.5c-0.1,0.5-0.2,1.1-0.4,1.6c-2,5.9-7.5,9.8-13.7,9.9c0,0-0.1,0-0.1,0c-6.1,0-11.6-3.9-13.7-9.7
		c-0.1-0.2-0.1-0.3-0.2-0.5L303,389l-15.4,49.9c0,0.1-0.1,0.2-0.1,0.3c-2,5.9-7.5,9.8-13.7,9.9c0,0-0.1,0-0.1,0
		c-6.1,0-11.6-3.9-13.7-9.7c-0.2-0.6-0.4-1.2-0.5-1.8L242,348.9c-1.3-6.8,3.1-13.3,9.8-14.7c6.8-1.3,13.3,3.1,14.7,9.8l9.4,47.7
		l14.9-48c0.9-4.2,4.1-7.9,8.5-9.2c6.6-2,13.6,1.7,15.6,8.3l15.1,49l9.5-47.6c1.3-6.8,7.9-11.2,14.7-9.8
		C361,335.8,365.4,342.3,364,349.1L364,349.1z M454.2,419.2c-3.1,17.3-19.5,29.8-39.1,29.8c-15.8,0-30.6-6.4-40.6-17.4
		c-4.6-5.1-4.2-13,0.9-17.7s13-4.2,17.7,0.9c5.2,5.8,13.5,9.2,22.1,9.2c8,0,13.7-4.7,14.5-9.2c1.1-5.9-8.2-9.8-11-10.9
		c-14-5.2-26.4-10.7-26.9-10.9c-0.6-0.3-1.2-0.6-1.7-0.9c-9.9-6.5-15-17.8-13.3-29.5c1.8-12.5,10.9-22.7,23.8-26.6
		c23.8-7.2,43.6,7.6,46.5,10c2.9,2.3,4.8,5.8,4.8,9.8c0,6.9-5.6,12.5-12.5,12.5c-3.1,0-5.9-1.1-8.1-2.9l0,0l0.1,0.1
		c-0.1-0.1-11.5-9.2-23.6-5.5c-5.1,1.5-6.1,4.8-6.3,6.2c-0.1,0.9-0.2,3,1.6,4.6c3.3,1.5,13.4,5.8,24.3,9.8
		C450.7,389.1,456.6,406.1,454.2,419.2L454.2,419.2z"/>
</g>
</svg>
