<?xml version="1.0" encoding="utf-8"?>
<!-- Generator: Adobe Illustrator 24.2.1, SVG Export Plug-In . SVG Version: 6.00 Build 0)  -->
<svg version="1.1" id="Capa_1" xmlns="http://www.w3.org/2000/svg" xmlns:xlink="http://www.w3.org/1999/xlink" x="0px" y="0px"
	 viewBox="0 0 512 512" style="enable-background:new 0 0 512 512;" xml:space="preserve">
<style type="text/css">
	.st0{fill:#FFFFFF;}
</style>
<g>
	<g>
		<path class="st0" d="M393.4,269.7H221.7c-4.1,0-7.5,3.4-7.5,7.5s3.4,7.5,7.5,7.5h171.7c4.1,0,7.5-3.4,7.5-7.5
			S397.5,269.7,393.4,269.7z"/>
		<path class="st0" d="M393.4,302H221.7c-4.1,0-7.5,3.4-7.5,7.5s3.4,7.5,7.5,7.5h171.7c4.1,0,7.5-3.4,7.5-7.5S397.5,302,393.4,302z"
			/>
		<path class="st0" d="M393.4,334.4H221.7c-4.1,0-7.5,3.4-7.5,7.5s3.4,7.5,7.5,7.5h171.7c4.1,0,7.5-3.4,7.5-7.5
			S397.5,334.4,393.4,334.4z"/>
		<path class="st0" d="M393.4,366.7H221.7c-4.1,0-7.5,3.4-7.5,7.5s3.4,7.5,7.5,7.5h171.7c4.1,0,7.5-3.4,7.5-7.5
			S397.5,366.7,393.4,366.7z"/>
		<path class="st0" d="M393.4,399H221.7c-4.1,0-7.5,3.4-7.5,7.5s3.4,7.5,7.5,7.5h171.7c4.1,0,7.5-3.4,7.5-7.5S397.5,399,393.4,399z"
			/>
		<path class="st0" d="M393.4,431.3H221.7c-4.1,0-7.5,3.4-7.5,7.5s3.4,7.5,7.5,7.5h171.7c4.1,0,7.5-3.4,7.5-7.5
			S397.5,431.3,393.4,431.3z"/>
		<path class="st0" d="M39.8,478.7h353.6c4.1,0,7.5-3.4,7.5-7.5s-3.4-7.5-7.5-7.5H39.8c-4.1,0-7.5,3.4-7.5,7.5
			S35.7,478.7,39.8,478.7L39.8,478.7z"/>
		<path class="st0" d="M32.3,438.8c0,4.1,3.4,7.5,7.5,7.5h141.4c4.1,0,7.5-3.4,7.5-7.5V277.2c0-4.1-3.4-7.5-7.5-7.5H39.8
			c-4.1,0-7.5,3.4-7.5,7.5L32.3,438.8z M47.3,284.7h126.4v146.6H47.3L47.3,284.7z"/>
		<path class="st0" d="M400.9,101.4c0-4.1-3.4-7.5-7.5-7.5H39.8c-4.1,0-7.5,3.4-7.5,7.5v135.4c0,4.1,3.4,7.5,7.5,7.5h353.6
			c4.1,0,7.5-3.4,7.5-7.5V101.4z M385.9,229.3H47.3V108.9h338.6V229.3z"/>
		<path class="st0" d="M69.4,212c4.1,0,7.5-3.4,7.5-7.5V158l34.1,49.3c2.3,3.3,6,4.7,9.5,3.5c3.6-1.1,6-4.6,6-8.8l-0.7-68.3
			c0-4.1-3.4-7.4-7.5-7.4c0,0,0,0-0.1,0c-4.1,0-7.5,3.4-7.4,7.6l0.5,47.5l-35.7-51.7c-1.9-2.7-5.3-3.9-8.4-2.9s-5.3,3.9-5.3,7.2
			v70.6C61.9,208.6,65.3,212,69.4,212z"/>
		<path class="st0" d="M150.7,212h29.8c4.1,0,7.5-3.4,7.5-7.5s-3.4-7.5-7.5-7.5h-22.3v-20.4h20.1c4.1,0,7.5-3.4,7.5-7.5
			s-3.4-7.5-7.5-7.5h-20.1v-20.4h22.3c4.1,0,7.5-3.4,7.5-7.5s-3.4-7.5-7.5-7.5h-29.8c-4.1,0-7.5,3.4-7.5,7.5v70.7
			C143.2,208.6,146.5,212,150.7,212L150.7,212z"/>
		<path class="st0" d="M342.5,212c14.3,0,26.2-9,28.4-21.5c1.7-9.3-2.6-21.5-19.7-27.8c-8.9-3.3-17.2-6.9-19.5-7.9
			c-1.8-1.4-2.7-3.6-2.4-6c0.2-1.5,1.3-5.2,6.6-6.8c10.7-3.2,20.5,4.6,20.7,4.7c3.2,2.6,7.9,2.2,10.5-0.9c2.7-3.2,2.3-7.9-0.9-10.6
			c-0.6-0.5-16-13.2-34.6-7.6c-9.3,2.8-15.8,10.1-17.1,19c-1.2,8.3,2.4,16.4,9.4,20.9c0.3,0.2,0.7,0.4,1,0.6
			c0.4,0.2,10.1,4.5,21,8.5c7.2,2.7,10.9,6.7,10.1,11.1c-0.8,4.5-6.1,9.1-13.7,9.1c-7.4,0-14.5-3-19.1-8c-2.8-3.1-7.5-3.3-10.6-0.5
			c-3.1,2.8-3.3,7.5-0.5,10.6C319.7,207.1,330.9,212,342.5,212L342.5,212z"/>
		<path class="st0" d="M219.2,204.9c0.1,0.4,0.2,0.7,0.3,1.1c1.3,3.6,4.7,6.1,8.6,6.1h0.1c3.9,0,7.3-2.5,8.6-6.2
			c0-0.1,0-0.1,0.1-0.2l14.4-46.4l14.3,46.4c0,0.1,0.1,0.2,0.1,0.3c1.3,3.6,4.7,6,8.6,6h0.1c3.9,0,7.3-2.5,8.5-6.2
			c0.1-0.3,0.2-0.6,0.3-1l13.8-69.5c0.8-4.1-1.8-8-5.9-8.8c-4.1-0.8-8,1.8-8.8,5.9l-9.2,46.4l-14.6-47.2l0,0
			c-0.7-2.2-2.5-4.1-4.9-4.8c-4-1.2-8.2,1-9.4,4.9l-14.6,47.1l-9.2-46.5c-0.8-4.1-4.8-6.7-8.8-5.9c-4.1,0.8-6.7,4.8-5.9,8.8
			L219.2,204.9z"/>
		<path class="st0" d="M485.8,0c-0.2,0-0.8,0-1,0H346.6c-4.1,0-7.5,3.4-7.5,7.5s3.4,7.5,7.5,7.5h113.9c-1.9,3.7-2.9,7.8-2.9,12.2
			v170.3c0,4.1,3.4,7.5,7.5,7.5s7.5-3.4,7.5-7.5V27.2c-0.1-6.6,5.6-12.3,12.4-12.2c6.3,0.1,12,5.9,12,12.7v438.9
			c0,16.8-14.3,30.4-31.9,30.4c0,0,0,0,0,0s0,0,0,0c-17.6,0-31.9-13.6-31.9-30.4V410h11.7c15.3,0,27.7-12.4,27.7-27.7V232.5
			c0-4.1-3.4-7.5-7.5-7.5s-7.5,3.4-7.5,7.5v149.8c0,7-5.7,12.7-12.7,12.7h-11.7V90.3c0-15.3-12.4-27.7-27.7-27.7H56.4V27.2
			c0-6.7,5.5-12.2,12.2-12.2h243c4.1,0,7.5-3.4,7.5-7.5S315.7,0,311.6,0h-243c-15,0-27.2,12.2-27.2,27.2v35.4H27.7
			C12.4,62.6,0,75.1,0,90.3v221.1c0,4.1,3.4,7.5,7.5,7.5s7.5-3.4,7.5-7.5V90.3c0-7,5.7-12.7,12.7-12.7h377.8c7,0,12.7,5.7,12.7,12.7
			v376.3c0,11.7,4.6,22.3,12.1,30.4H46.9C29.3,497,15,483.4,15,466.6V346.5c0-4.1-3.4-7.5-7.5-7.5S0,342.3,0,346.5v120.1
			c0,25,21,45.4,46.9,45.4h418.2h0c0,0,0,0,0,0c25.9,0,46.9-20.4,46.9-45.4V27.7C512,12.7,500.5,0.5,485.8,0L485.8,0z"/>
	</g>
</g>
</svg>
