<svg id="Capa_1" data-name="Capa 1" xmlns="http://www.w3.org/2000/svg" viewBox="0 0 1880.13 520.67"><circle cx="74.17" cy="30" r="25.5" fill="none" stroke="#f2ebf3" stroke-miterlimit="10" stroke-width="9"/><circle cx="264.1" cy="328.96" r="25.5" fill="none" stroke="#f2ebf3" stroke-miterlimit="10" stroke-width="9"/><line x1="100.75" y1="29.69" x2="406.92" y2="30" fill="none" stroke="#f2ebf3" stroke-miterlimit="10" stroke-width="9"/><line x1="276.52" y1="302.04" x2="400.97" y2="32.39" fill="none" stroke="#f2ebf3" stroke-miterlimit="10" stroke-width="9"/><circle cx="442.68" cy="136" r="25.5" fill="none" stroke="#f2ebf3" stroke-miterlimit="10" stroke-width="9"/><circle cx="134.76" cy="174.6" r="25.5" fill="none" stroke="#f2ebf3" stroke-miterlimit="10" stroke-width="9"/><line x1="435.44" y1="156.9" x2="273.45" y2="474.31" fill="none" stroke="#f2ebf3" stroke-miterlimit="10" stroke-width="9"/><line x1="138.83" y1="204.33" x2="275.21" y2="468.14" fill="none" stroke="#f2ebf3" stroke-miterlimit="10" stroke-width="9"/><circle cx="187.18" cy="490.66" r="25.5" fill="none" stroke="#f2ebf3" stroke-miterlimit="10" stroke-width="9"/><circle cx="307.51" cy="117.4" r="25.5" fill="none" stroke="#f2ebf3" stroke-miterlimit="10" stroke-width="9"/><line x1="176.59" y1="465.16" x2="4.04" y2="113.97" fill="none" stroke="#f2ebf3" stroke-miterlimit="10" stroke-width="9"/><line x1="282.87" y1="117.13" x2="2.34" y2="114.09" fill="none" stroke="#f2ebf3" stroke-miterlimit="10" stroke-width="9"/><text transform="translate(592.72 380.18)" font-size="345.15" fill="#f2ebf3" font-family="Hero-Bold, Hero" font-weight="700" letter-spacing="0.02em"><tspan xml:space="preserve">Unid  d</tspan></text><ellipse cx="1532.02" cy="364.93" rx="10.09" ry="10.08" fill="#792e87" stroke="#f2ebf3" stroke-miterlimit="10" stroke-width="3"/><ellipse cx="1456.7" cy="246.87" rx="10.09" ry="10.08" fill="#792e87" stroke="#f2ebf3" stroke-miterlimit="10" stroke-width="3"/><line x1="1521.49" y1="365.06" x2="1400.28" y2="365.07" fill="#792e87" stroke="#f2ebf3" stroke-miterlimit="10" stroke-width="3"/><line x1="1451.79" y1="257.51" x2="1402.63" y2="364.12" fill="#792e87" stroke="#f2ebf3" stroke-miterlimit="10" stroke-width="3"/><ellipse cx="1386.08" cy="323.19" rx="10.09" ry="10.08" fill="#792e87" stroke="#f2ebf3" stroke-miterlimit="10" stroke-width="3"/><ellipse cx="1507.97" cy="307.81" rx="10.09" ry="10.08" fill="#792e87" stroke="#f2ebf3" stroke-miterlimit="10" stroke-width="3"/><line x1="1388.93" y1="314.93" x2="1452.94" y2="189.44" fill="#792e87" stroke="#f2ebf3" stroke-miterlimit="10" stroke-width="3"/><line x1="1506.34" y1="296.07" x2="1452.24" y2="191.88" fill="#792e87" stroke="#f2ebf3" stroke-miterlimit="10" stroke-width="3"/><ellipse cx="1487.08" cy="182.94" rx="10.09" ry="10.08" fill="#792e87" stroke="#f2ebf3" stroke-miterlimit="10" stroke-width="3"/><ellipse cx="1439.6" cy="330.49" rx="10.09" ry="10.08" fill="#792e87" stroke="#f2ebf3" stroke-miterlimit="10" stroke-width="3"/><line x1="1491.29" y1="193.02" x2="1557.92" y2="330.38" fill="#792e87" stroke="#f2ebf3" stroke-miterlimit="10" stroke-width="3"/><line x1="1449.35" y1="330.59" x2="1560.42" y2="331.67" fill="#792e87" stroke="#f2ebf3" stroke-miterlimit="10" stroke-width="3"/></svg>